<mxfile host="app.diagrams.net" modified="2022-12-28T07:54:21.574Z" agent="5.0 (Macintosh; Intel Mac OS X 10_15_7) AppleWebKit/537.36 (KHTML, like Gecko) Chrome/108.0.0.0 Safari/537.36" etag="5zIJkOh_Rr-Lw_ABBzBf" version="20.7.4" type="github">
  <diagram id="C5RBs43oDa-KdzZeNtuy" name="Page-1">
    <mxGraphModel dx="2287" dy="718" grid="1" gridSize="10" guides="1" tooltips="1" connect="1" arrows="1" fold="1" page="1" pageScale="1" pageWidth="827" pageHeight="1169" math="0" shadow="0">
      <root>
        <mxCell id="WIyWlLk6GJQsqaUBKTNV-0" />
        <mxCell id="WIyWlLk6GJQsqaUBKTNV-1" parent="WIyWlLk6GJQsqaUBKTNV-0" />
        <mxCell id="dn64MigM15AH9dNGIZ7F-24" style="edgeStyle=orthogonalEdgeStyle;rounded=0;orthogonalLoop=1;jettySize=auto;html=1;exitX=0.5;exitY=1;exitDx=0;exitDy=0;exitPerimeter=0;entryX=0.5;entryY=0;entryDx=0;entryDy=0;" parent="WIyWlLk6GJQsqaUBKTNV-1" source="dn64MigM15AH9dNGIZ7F-0" target="dn64MigM15AH9dNGIZ7F-23" edge="1">
          <mxGeometry relative="1" as="geometry" />
        </mxCell>
        <mxCell id="dn64MigM15AH9dNGIZ7F-38" value="" style="edgeStyle=orthogonalEdgeStyle;rounded=0;orthogonalLoop=1;jettySize=auto;html=1;" parent="WIyWlLk6GJQsqaUBKTNV-1" source="dn64MigM15AH9dNGIZ7F-0" target="dn64MigM15AH9dNGIZ7F-37" edge="1">
          <mxGeometry relative="1" as="geometry" />
        </mxCell>
        <mxCell id="dn64MigM15AH9dNGIZ7F-0" value="定時任務" style="strokeWidth=2;html=1;shape=mxgraph.flowchart.terminator;whiteSpace=wrap;fillColor=#d5e8d4;strokeColor=#82b366;gradientColor=#97d077;" parent="WIyWlLk6GJQsqaUBKTNV-1" vertex="1">
          <mxGeometry x="320" y="302.5" width="100" height="60" as="geometry" />
        </mxCell>
        <mxCell id="dn64MigM15AH9dNGIZ7F-4" value="" style="edgeStyle=orthogonalEdgeStyle;rounded=0;orthogonalLoop=1;jettySize=auto;html=1;" parent="WIyWlLk6GJQsqaUBKTNV-1" source="dn64MigM15AH9dNGIZ7F-23" target="dn64MigM15AH9dNGIZ7F-3" edge="1">
          <mxGeometry relative="1" as="geometry">
            <mxPoint x="300" y="472.5" as="sourcePoint" />
          </mxGeometry>
        </mxCell>
        <mxCell id="dn64MigM15AH9dNGIZ7F-6" value="&lt;font color=&quot;#ff0000&quot;&gt;LAST&lt;/font&gt;" style="edgeLabel;html=1;align=center;verticalAlign=middle;resizable=0;points=[];" parent="dn64MigM15AH9dNGIZ7F-4" vertex="1" connectable="0">
          <mxGeometry x="0.4476" relative="1" as="geometry">
            <mxPoint x="-93" as="offset" />
          </mxGeometry>
        </mxCell>
        <mxCell id="dn64MigM15AH9dNGIZ7F-8" value="" style="edgeStyle=orthogonalEdgeStyle;rounded=0;orthogonalLoop=1;jettySize=auto;html=1;" parent="WIyWlLk6GJQsqaUBKTNV-1" source="dn64MigM15AH9dNGIZ7F-23" target="dn64MigM15AH9dNGIZ7F-7" edge="1">
          <mxGeometry relative="1" as="geometry">
            <mxPoint x="430" y="472.5" as="sourcePoint" />
          </mxGeometry>
        </mxCell>
        <mxCell id="dn64MigM15AH9dNGIZ7F-9" value="&lt;font color=&quot;#ff0000&quot;&gt;DDA&lt;/font&gt;" style="edgeLabel;html=1;align=center;verticalAlign=middle;resizable=0;points=[];" parent="dn64MigM15AH9dNGIZ7F-8" vertex="1" connectable="0">
          <mxGeometry x="0.37" y="3" relative="1" as="geometry">
            <mxPoint x="113" y="3" as="offset" />
          </mxGeometry>
        </mxCell>
        <mxCell id="dn64MigM15AH9dNGIZ7F-12" style="edgeStyle=orthogonalEdgeStyle;rounded=0;orthogonalLoop=1;jettySize=auto;html=1;exitX=0.5;exitY=1;exitDx=0;exitDy=0;entryX=0;entryY=0.5;entryDx=0;entryDy=0;" parent="WIyWlLk6GJQsqaUBKTNV-1" source="dn64MigM15AH9dNGIZ7F-3" target="dn64MigM15AH9dNGIZ7F-10" edge="1">
          <mxGeometry relative="1" as="geometry" />
        </mxCell>
        <mxCell id="dn64MigM15AH9dNGIZ7F-49" value="" style="edgeStyle=orthogonalEdgeStyle;rounded=0;orthogonalLoop=1;jettySize=auto;html=1;fontColor=#FF0000;" parent="WIyWlLk6GJQsqaUBKTNV-1" source="dn64MigM15AH9dNGIZ7F-3" target="dn64MigM15AH9dNGIZ7F-48" edge="1">
          <mxGeometry relative="1" as="geometry" />
        </mxCell>
        <mxCell id="dn64MigM15AH9dNGIZ7F-3" value="&lt;pre style=&quot;border-color: var(--border-color); color: rgb(223, 223, 224); font-size: 13.0667px; caret-color: rgb(0, 0, 0);&quot;&gt;&lt;span style=&quot;border-color: var(--border-color); color: rgb(249, 123, 176); font-weight: bold;&quot;&gt;SELECT &lt;/span&gt;&lt;span style=&quot;border-color: var(--border-color); color: rgb(252, 252, 252);&quot;&gt;ao&lt;/span&gt;.*&lt;br style=&quot;border-color: var(--border-color);&quot;&gt;&lt;span style=&quot;border-color: var(--border-color); color: rgb(249, 123, 176); font-weight: bold;&quot;&gt;FROM &lt;/span&gt;&lt;span style=&quot;border-color: var(--border-color); color: rgb(130, 230, 255);&quot;&gt;affilliate_order &lt;/span&gt;&lt;span style=&quot;border-color: var(--border-color); color: rgb(249, 123, 176); font-weight: bold;&quot;&gt;AS &lt;/span&gt;&lt;span style=&quot;border-color: var(--border-color); color: rgb(252, 252, 252);&quot;&gt;ao&lt;br style=&quot;border-color: var(--border-color);&quot;&gt;&lt;/span&gt;&lt;span style=&quot;border-color: var(--border-color); color: rgb(252, 252, 252);&quot;&gt;         &lt;/span&gt;&lt;span style=&quot;border-color: var(--border-color); color: rgb(249, 123, 176); font-weight: bold;&quot;&gt;LEFT JOIN &lt;/span&gt;&lt;span style=&quot;border-color: var(--border-color); color: rgb(130, 230, 255);&quot;&gt;order_tbl &lt;/span&gt;&lt;span style=&quot;border-color: var(--border-color); color: rgb(249, 123, 176); font-weight: bold;&quot;&gt;AS &lt;/span&gt;&lt;span style=&quot;border-color: var(--border-color); color: rgb(252, 252, 252);&quot;&gt;ot &lt;/span&gt;&lt;span style=&quot;border-color: var(--border-color); color: rgb(249, 123, 176); font-weight: bold;&quot;&gt;ON &lt;/span&gt;&lt;span style=&quot;border-color: var(--border-color); color: rgb(252, 252, 252);&quot;&gt;ot&lt;/span&gt;.&lt;span style=&quot;border-color: var(--border-color); color: rgb(73, 176, 206);&quot;&gt;order_oid &lt;/span&gt;= &lt;span style=&quot;border-color: var(--border-color); color: rgb(252, 252, 252);&quot;&gt;ao&lt;/span&gt;.&lt;span style=&quot;border-color: var(--border-color); color: rgb(73, 176, 206);&quot;&gt;order_oid&lt;br style=&quot;border-color: var(--border-color);&quot;&gt;&lt;/span&gt;&lt;span style=&quot;border-color: var(--border-color); color: rgb(73, 176, 206);&quot;&gt;         &lt;/span&gt;&lt;span style=&quot;border-color: var(--border-color); color: rgb(249, 123, 176); font-weight: bold;&quot;&gt;LEFT JOIN &lt;/span&gt;&lt;span style=&quot;border-color: var(--border-color); color: rgb(130, 230, 255);&quot;&gt;affilliate_web &lt;/span&gt;&lt;span style=&quot;border-color: var(--border-color); color: rgb(249, 123, 176); font-weight: bold;&quot;&gt;AS &lt;/span&gt;&lt;span style=&quot;border-color: var(--border-color); color: rgb(252, 252, 252);&quot;&gt;aw &lt;/span&gt;&lt;span style=&quot;border-color: var(--border-color); color: rgb(249, 123, 176); font-weight: bold;&quot;&gt;ON &lt;/span&gt;&lt;span style=&quot;border-color: var(--border-color); color: rgb(252, 252, 252);&quot;&gt;aw&lt;/span&gt;.&lt;span style=&quot;border-color: var(--border-color); color: rgb(73, 176, 206);&quot;&gt;cid &lt;/span&gt;= &lt;span style=&quot;border-color: var(--border-color); color: rgb(252, 252, 252);&quot;&gt;ao&lt;/span&gt;.&lt;span style=&quot;border-color: var(--border-color); color: rgb(73, 176, 206);&quot;&gt;cid &lt;/span&gt;&lt;span style=&quot;border-color: var(--border-color); color: rgb(249, 123, 176); font-weight: bold;&quot;&gt;AND &lt;/span&gt;&lt;span style=&quot;border-color: var(--border-color); color: rgb(252, 252, 252);&quot;&gt;aw&lt;/span&gt;.&lt;span style=&quot;border-color: var(--border-color); color: rgb(73, 176, 206);&quot;&gt;attribution_type &lt;/span&gt;= &lt;span style=&quot;border-color: var(--border-color); color: rgb(255, 128, 108);&quot;&gt;&#39;LAST&#39;&lt;br style=&quot;border-color: var(--border-color);&quot;&gt;&lt;/span&gt;&lt;span style=&quot;border-color: var(--border-color); color: rgb(249, 123, 176); font-weight: bold;&quot;&gt;WHERE &lt;/span&gt;&lt;span style=&quot;border-color: var(--border-color); color: rgb(252, 252, 252);&quot;&gt;ao&lt;/span&gt;.&lt;span style=&quot;border-color: var(--border-color); color: rgb(73, 176, 206);&quot;&gt;order_status &lt;/span&gt;= &lt;span style=&quot;border-color: var(--border-color); color: rgb(255, 128, 108);&quot;&gt;&#39;BACK&#39; // 已回程 &lt;br style=&quot;border-color: var(--border-color);&quot;&gt;&lt;/span&gt;&lt;span style=&quot;border-color: var(--border-color); color: rgb(255, 128, 108);&quot;&gt;  &lt;/span&gt;&lt;span style=&quot;border-color: var(--border-color); color: rgb(249, 123, 176); font-weight: bold;&quot;&gt;AND &lt;/span&gt;&lt;span style=&quot;border-color: var(--border-color); color: rgb(252, 252, 252);&quot;&gt;ao&lt;/span&gt;.&lt;span style=&quot;border-color: var(--border-color); color: rgb(73, 176, 206);&quot;&gt;settle_oid &lt;/span&gt;&lt;span style=&quot;border-color: var(--border-color); color: rgb(249, 123, 176); font-weight: bold;&quot;&gt;IS NULL&lt;br style=&quot;border-color: var(--border-color);&quot;&gt;&lt;/span&gt;&lt;span style=&quot;border-color: var(--border-color); color: rgb(249, 123, 176); font-weight: bold;&quot;&gt;  AND &lt;/span&gt;&lt;span style=&quot;border-color: var(--border-color); color: rgb(252, 252, 252);&quot;&gt;ot&lt;/span&gt;.&lt;span style=&quot;border-color: var(--border-color); color: rgb(73, 176, 206);&quot;&gt;real_back_date &lt;/span&gt;&lt;span style=&quot;border-color: var(--border-color); color: rgb(249, 123, 176); font-weight: bold;&quot;&gt;BETWEEN &lt;/span&gt;&lt;span style=&quot;border-color: var(--border-color); color: rgb(255, 128, 108);&quot;&gt;&#39;2022-12-24&#39; &lt;/span&gt;&lt;span style=&quot;border-color: var(--border-color); color: rgb(249, 123, 176); font-weight: bold;&quot;&gt;AND &lt;/span&gt;&lt;span style=&quot;border-color: var(--border-color); color: rgb(255, 128, 108);&quot;&gt;&#39;2022-12-25&#39;&lt;br style=&quot;border-color: var(--border-color);&quot;&gt;&lt;/span&gt;&lt;span style=&quot;border-color: var(--border-color); color: rgb(249, 123, 176); font-weight: bold;&quot;&gt;UNION&lt;br style=&quot;border-color: var(--border-color);&quot;&gt;&lt;/span&gt;&lt;span style=&quot;border-color: var(--border-color); color: rgb(249, 123, 176); font-weight: bold;&quot;&gt;SELECT &lt;/span&gt;&lt;span style=&quot;border-color: var(--border-color); color: rgb(252, 252, 252);&quot;&gt;ao&lt;/span&gt;.*&lt;br style=&quot;border-color: var(--border-color);&quot;&gt;&lt;span style=&quot;border-color: var(--border-color); color: rgb(249, 123, 176); font-weight: bold;&quot;&gt;FROM &lt;/span&gt;&lt;span style=&quot;border-color: var(--border-color); color: rgb(130, 230, 255);&quot;&gt;affilliate_order &lt;/span&gt;&lt;span style=&quot;border-color: var(--border-color); color: rgb(249, 123, 176); font-weight: bold;&quot;&gt;AS &lt;/span&gt;&lt;span style=&quot;border-color: var(--border-color); color: rgb(252, 252, 252);&quot;&gt;ao&lt;br style=&quot;border-color: var(--border-color);&quot;&gt;&lt;/span&gt;&lt;span style=&quot;border-color: var(--border-color); color: rgb(252, 252, 252);&quot;&gt;         &lt;/span&gt;&lt;span style=&quot;border-color: var(--border-color); color: rgb(249, 123, 176); font-weight: bold;&quot;&gt;LEFT JOIN &lt;/span&gt;&lt;span style=&quot;border-color: var(--border-color); color: rgb(130, 230, 255);&quot;&gt;order_barcode &lt;/span&gt;&lt;span style=&quot;border-color: var(--border-color); color: rgb(249, 123, 176); font-weight: bold;&quot;&gt;AS &lt;/span&gt;&lt;span style=&quot;border-color: var(--border-color); color: rgb(252, 252, 252);&quot;&gt;ob &lt;/span&gt;&lt;span style=&quot;border-color: var(--border-color); color: rgb(249, 123, 176); font-weight: bold;&quot;&gt;ON &lt;/span&gt;&lt;span style=&quot;border-color: var(--border-color); color: rgb(252, 252, 252);&quot;&gt;ob&lt;/span&gt;.&lt;span style=&quot;border-color: var(--border-color); color: rgb(73, 176, 206);&quot;&gt;order_oid &lt;/span&gt;= &lt;span style=&quot;border-color: var(--border-color); color: rgb(252, 252, 252);&quot;&gt;ao&lt;/span&gt;.&lt;span style=&quot;border-color: var(--border-color); color: rgb(73, 176, 206);&quot;&gt;order_oid &lt;/span&gt;&lt;span style=&quot;border-color: var(--border-color); color: rgb(249, 123, 176); font-weight: bold;&quot;&gt;AND &lt;/span&gt;&lt;span style=&quot;border-color: var(--border-color); color: rgb(252, 252, 252);&quot;&gt;ob&lt;/span&gt;.&lt;span style=&quot;border-color: var(--border-color); color: rgb(73, 176, 206);&quot;&gt;barcode_status &lt;/span&gt;= &lt;span style=&quot;border-color: var(--border-color); color: rgb(255, 128, 108);&quot;&gt;&#39;USED&#39;&lt;br style=&quot;border-color: var(--border-color);&quot;&gt;&lt;/span&gt;&lt;span style=&quot;border-color: var(--border-color); color: rgb(255, 128, 108);&quot;&gt;         &lt;/span&gt;&lt;span style=&quot;border-color: var(--border-color); color: rgb(249, 123, 176); font-weight: bold;&quot;&gt;LEFT JOIN &lt;/span&gt;&lt;span style=&quot;border-color: var(--border-color); color: rgb(130, 230, 255);&quot;&gt;affilliate_web &lt;/span&gt;&lt;span style=&quot;border-color: var(--border-color); color: rgb(249, 123, 176); font-weight: bold;&quot;&gt;AS &lt;/span&gt;&lt;span style=&quot;border-color: var(--border-color); color: rgb(252, 252, 252);&quot;&gt;aw &lt;/span&gt;&lt;span style=&quot;border-color: var(--border-color); color: rgb(249, 123, 176); font-weight: bold;&quot;&gt;ON &lt;/span&gt;&lt;span style=&quot;border-color: var(--border-color); color: rgb(252, 252, 252);&quot;&gt;aw&lt;/span&gt;.&lt;span style=&quot;border-color: var(--border-color); color: rgb(73, 176, 206);&quot;&gt;cid &lt;/span&gt;= &lt;span style=&quot;border-color: var(--border-color); color: rgb(252, 252, 252);&quot;&gt;ao&lt;/span&gt;.&lt;span style=&quot;border-color: var(--border-color); color: rgb(73, 176, 206);&quot;&gt;cid &lt;/span&gt;&lt;span style=&quot;border-color: var(--border-color); color: rgb(249, 123, 176); font-weight: bold;&quot;&gt;AND &lt;/span&gt;&lt;span style=&quot;border-color: var(--border-color); color: rgb(252, 252, 252);&quot;&gt;aw&lt;/span&gt;.&lt;span style=&quot;border-color: var(--border-color); color: rgb(73, 176, 206);&quot;&gt;attribution_type &lt;/span&gt;= &lt;span style=&quot;border-color: var(--border-color); color: rgb(255, 128, 108);&quot;&gt;&#39;LAST&#39;&lt;br style=&quot;border-color: var(--border-color);&quot;&gt;&lt;/span&gt;&lt;span style=&quot;border-color: var(--border-color); color: rgb(249, 123, 176); font-weight: bold;&quot;&gt;WHERE &lt;/span&gt;&lt;span style=&quot;border-color: var(--border-color); color: rgb(252, 252, 252);&quot;&gt;ao&lt;/span&gt;.&lt;span style=&quot;border-color: var(--border-color); color: rgb(73, 176, 206);&quot;&gt;order_status &lt;/span&gt;= &lt;span style=&quot;border-color: var(--border-color); color: rgb(255, 128, 108);&quot;&gt;&#39;BACK&#39;&lt;br style=&quot;border-color: var(--border-color);&quot;&gt;&lt;/span&gt;&lt;span style=&quot;border-color: var(--border-color); color: rgb(255, 128, 108);&quot;&gt;  &lt;/span&gt;&lt;span style=&quot;border-color: var(--border-color); color: rgb(249, 123, 176); font-weight: bold;&quot;&gt;AND &lt;/span&gt;&lt;span style=&quot;border-color: var(--border-color); color: rgb(252, 252, 252);&quot;&gt;ao&lt;/span&gt;.&lt;span style=&quot;border-color: var(--border-color); color: rgb(73, 176, 206);&quot;&gt;settle_oid &lt;/span&gt;&lt;span style=&quot;border-color: var(--border-color); color: rgb(249, 123, 176); font-weight: bold;&quot;&gt;IS NULL&lt;br style=&quot;border-color: var(--border-color);&quot;&gt;&lt;/span&gt;&lt;span style=&quot;border-color: var(--border-color); color: rgb(249, 123, 176); font-weight: bold;&quot;&gt;  AND &lt;/span&gt;&lt;span style=&quot;border-color: var(--border-color); color: rgb(252, 252, 252);&quot;&gt;ob&lt;/span&gt;.&lt;span style=&quot;border-color: var(--border-color); color: rgb(73, 176, 206);&quot;&gt;use_date &lt;/span&gt;&lt;span style=&quot;border-color: var(--border-color); color: rgb(249, 123, 176); font-weight: bold;&quot;&gt;BETWEEN &lt;/span&gt;&lt;span style=&quot;border-color: var(--border-color); color: rgb(255, 128, 108);&quot;&gt;&#39;2022-12-24&#39; &lt;/span&gt;&lt;span style=&quot;border-color: var(--border-color); color: rgb(249, 123, 176); font-weight: bold;&quot;&gt;AND &lt;/span&gt;&lt;span style=&quot;border-color: var(--border-color); color: rgb(255, 128, 108);&quot;&gt;&#39;2022-12-25&#39;&lt;/span&gt;;&lt;/pre&gt;" style="rounded=1;whiteSpace=wrap;html=1;strokeWidth=2;fillColor=#000000;align=left;verticalAlign=bottom;" parent="WIyWlLk6GJQsqaUBKTNV-1" vertex="1">
          <mxGeometry x="-540" y="496.88" width="790" height="266.25" as="geometry" />
        </mxCell>
        <mxCell id="dn64MigM15AH9dNGIZ7F-13" style="edgeStyle=orthogonalEdgeStyle;rounded=0;orthogonalLoop=1;jettySize=auto;html=1;exitX=0.5;exitY=1;exitDx=0;exitDy=0;entryX=1;entryY=0.5;entryDx=0;entryDy=0;" parent="WIyWlLk6GJQsqaUBKTNV-1" source="dn64MigM15AH9dNGIZ7F-7" target="dn64MigM15AH9dNGIZ7F-10" edge="1">
          <mxGeometry relative="1" as="geometry" />
        </mxCell>
        <mxCell id="dn64MigM15AH9dNGIZ7F-51" value="" style="edgeStyle=orthogonalEdgeStyle;rounded=0;orthogonalLoop=1;jettySize=auto;html=1;fontColor=#FF0000;" parent="WIyWlLk6GJQsqaUBKTNV-1" source="dn64MigM15AH9dNGIZ7F-7" target="dn64MigM15AH9dNGIZ7F-48" edge="1">
          <mxGeometry relative="1" as="geometry" />
        </mxCell>
        <mxCell id="dn64MigM15AH9dNGIZ7F-7" value="&lt;pre style=&quot;border-color: var(--border-color); color: rgb(223, 223, 224); font-size: 13.0667px; caret-color: rgb(0, 0, 0);&quot;&gt;&lt;span style=&quot;border-color: var(--border-color); color: rgb(249, 123, 176); font-weight: bold;&quot;&gt;SELECT &lt;/span&gt;&lt;span style=&quot;border-color: var(--border-color); color: rgb(252, 252, 252);&quot;&gt;ao&lt;/span&gt;.*&lt;br style=&quot;border-color: var(--border-color);&quot;&gt;&lt;span style=&quot;border-color: var(--border-color); color: rgb(249, 123, 176); font-weight: bold;&quot;&gt;FROM &lt;/span&gt;&lt;span style=&quot;border-color: var(--border-color); color: rgb(130, 230, 255);&quot;&gt;affiliate_attribution_order &lt;/span&gt;&lt;span style=&quot;border-color: var(--border-color); color: rgb(249, 123, 176); font-weight: bold;&quot;&gt;AS &lt;/span&gt;&lt;span style=&quot;border-color: var(--border-color); color: rgb(252, 252, 252);&quot;&gt;ao&lt;br style=&quot;border-color: var(--border-color);&quot;&gt;&lt;/span&gt;&lt;span style=&quot;border-color: var(--border-color); color: rgb(252, 252, 252);&quot;&gt;         &lt;/span&gt;&lt;span style=&quot;border-color: var(--border-color); color: rgb(249, 123, 176); font-weight: bold;&quot;&gt;LEFT JOIN &lt;/span&gt;&lt;span style=&quot;border-color: var(--border-color); color: rgb(130, 230, 255);&quot;&gt;order_tbl &lt;/span&gt;&lt;span style=&quot;border-color: var(--border-color); color: rgb(249, 123, 176); font-weight: bold;&quot;&gt;AS &lt;/span&gt;&lt;span style=&quot;border-color: var(--border-color); color: rgb(252, 252, 252);&quot;&gt;ot &lt;/span&gt;&lt;span style=&quot;border-color: var(--border-color); color: rgb(249, 123, 176); font-weight: bold;&quot;&gt;ON &lt;/span&gt;&lt;span style=&quot;border-color: var(--border-color); color: rgb(252, 252, 252);&quot;&gt;ot&lt;/span&gt;.&lt;span style=&quot;border-color: var(--border-color); color: rgb(73, 176, 206);&quot;&gt;order_oid &lt;/span&gt;= &lt;span style=&quot;border-color: var(--border-color); color: rgb(252, 252, 252);&quot;&gt;ao&lt;/span&gt;.&lt;span style=&quot;border-color: var(--border-color); color: rgb(73, 176, 206);&quot;&gt;order_oid &lt;/span&gt;&lt;span style=&quot;border-color: var(--border-color); color: rgb(249, 123, 176); font-weight: bold;&quot;&gt;AND &lt;/span&gt;&lt;span style=&quot;border-color: var(--border-color); color: rgb(252, 252, 252);&quot;&gt;ot&lt;/span&gt;.&lt;span style=&quot;border-color: var(--border-color); color: rgb(73, 176, 206);&quot;&gt;order_status &lt;/span&gt;= &lt;span style=&quot;border-color: var(--border-color); color: rgb(255, 128, 108);&quot;&gt;&#39;BACK&#39;&lt;br style=&quot;border-color: var(--border-color);&quot;&gt;&lt;/span&gt;&lt;span style=&quot;border-color: var(--border-color); color: rgb(255, 128, 108);&quot;&gt;         &lt;/span&gt;&lt;span style=&quot;border-color: var(--border-color); color: rgb(249, 123, 176); font-weight: bold;&quot;&gt;LEFT JOIN &lt;/span&gt;&lt;span style=&quot;border-color: var(--border-color); color: rgb(130, 230, 255);&quot;&gt;order_lst &lt;/span&gt;&lt;span style=&quot;border-color: var(--border-color); color: rgb(249, 123, 176); font-weight: bold;&quot;&gt;AS &lt;/span&gt;&lt;span style=&quot;border-color: var(--border-color); color: rgb(252, 252, 252);&quot;&gt;ol &lt;/span&gt;&lt;span style=&quot;border-color: var(--border-color); color: rgb(249, 123, 176); font-weight: bold;&quot;&gt;ON &lt;/span&gt;&lt;span style=&quot;border-color: var(--border-color); color: rgb(252, 252, 252);&quot;&gt;ol&lt;/span&gt;.&lt;span style=&quot;border-color: var(--border-color); color: rgb(73, 176, 206);&quot;&gt;order_oid &lt;/span&gt;= &lt;span style=&quot;border-color: var(--border-color); color: rgb(252, 252, 252);&quot;&gt;ao&lt;/span&gt;.&lt;span style=&quot;border-color: var(--border-color); color: rgb(73, 176, 206);&quot;&gt;order_oid&lt;br style=&quot;border-color: var(--border-color);&quot;&gt;&lt;/span&gt;&lt;span style=&quot;border-color: var(--border-color); color: rgb(73, 176, 206);&quot;&gt;         &lt;/span&gt;&lt;span style=&quot;border-color: var(--border-color); color: rgb(249, 123, 176); font-weight: bold;&quot;&gt;LEFT JOIN &lt;/span&gt;&lt;span style=&quot;border-color: var(--border-color); color: rgb(130, 230, 255);&quot;&gt;affilliate_web &lt;/span&gt;&lt;span style=&quot;border-color: var(--border-color); color: rgb(249, 123, 176); font-weight: bold;&quot;&gt;AS &lt;/span&gt;&lt;span style=&quot;border-color: var(--border-color); color: rgb(252, 252, 252);&quot;&gt;aw &lt;/span&gt;&lt;span style=&quot;border-color: var(--border-color); color: rgb(249, 123, 176); font-weight: bold;&quot;&gt;ON &lt;/span&gt;&lt;span style=&quot;border-color: var(--border-color); color: rgb(252, 252, 252);&quot;&gt;aw&lt;/span&gt;.&lt;span style=&quot;border-color: var(--border-color); color: rgb(73, 176, 206);&quot;&gt;cid &lt;/span&gt;= &lt;span style=&quot;border-color: var(--border-color); color: rgb(252, 252, 252);&quot;&gt;ao&lt;/span&gt;.&lt;span style=&quot;border-color: var(--border-color); color: rgb(73, 176, 206);&quot;&gt;cid &lt;/span&gt;&lt;span style=&quot;border-color: var(--border-color); color: rgb(249, 123, 176); font-weight: bold;&quot;&gt;AND &lt;/span&gt;&lt;span style=&quot;border-color: var(--border-color); color: rgb(252, 252, 252);&quot;&gt;aw&lt;/span&gt;.&lt;span style=&quot;border-color: var(--border-color); color: rgb(73, 176, 206);&quot;&gt;attribution_type &lt;/span&gt;= &lt;span style=&quot;border-color: var(--border-color); color: rgb(255, 128, 108);&quot;&gt;&#39;DDA&#39;&lt;br style=&quot;border-color: var(--border-color);&quot;&gt;&lt;/span&gt;&lt;span style=&quot;border-color: var(--border-color); color: rgb(249, 123, 176); font-weight: bold;&quot;&gt;WHERE &lt;/span&gt;&lt;span style=&quot;border-color: var(--border-color); color: rgb(252, 252, 252);&quot;&gt;ao&lt;/span&gt;.&lt;span style=&quot;border-color: var(--border-color); color: rgb(73, 176, 206);&quot;&gt;settle_oid &lt;/span&gt;&lt;span style=&quot;border-color: var(--border-color); color: rgb(249, 123, 176); font-weight: bold;&quot;&gt;IS NULL&lt;br style=&quot;border-color: var(--border-color);&quot;&gt;&lt;/span&gt;&lt;span style=&quot;border-color: var(--border-color); color: rgb(249, 123, 176); font-weight: bold;&quot;&gt;  AND &lt;/span&gt;&lt;span style=&quot;border-color: var(--border-color); color: rgb(252, 252, 252);&quot;&gt;ot&lt;/span&gt;.&lt;span style=&quot;border-color: var(--border-color); color: rgb(73, 176, 206);&quot;&gt;real_back_date &lt;/span&gt;&lt;span style=&quot;border-color: var(--border-color); color: rgb(249, 123, 176); font-weight: bold;&quot;&gt;BETWEEN &lt;/span&gt;&lt;span style=&quot;border-color: var(--border-color); color: rgb(255, 128, 108);&quot;&gt;&#39;2022-12-24&#39; &lt;/span&gt;&lt;span style=&quot;border-color: var(--border-color); color: rgb(249, 123, 176); font-weight: bold;&quot;&gt;AND &lt;/span&gt;&lt;span style=&quot;border-color: var(--border-color); color: rgb(255, 128, 108);&quot;&gt;&#39;2022-12-25&#39;&lt;br style=&quot;border-color: var(--border-color);&quot;&gt;&lt;/span&gt;&lt;span style=&quot;border-color: var(--border-color); color: rgb(249, 123, 176); font-weight: bold;&quot;&gt;UNION&lt;br style=&quot;border-color: var(--border-color);&quot;&gt;&lt;/span&gt;&lt;span style=&quot;border-color: var(--border-color); color: rgb(249, 123, 176); font-weight: bold;&quot;&gt;SELECT &lt;/span&gt;&lt;span style=&quot;border-color: var(--border-color); color: rgb(252, 252, 252);&quot;&gt;ao&lt;/span&gt;.*&lt;br style=&quot;border-color: var(--border-color);&quot;&gt;&lt;span style=&quot;border-color: var(--border-color); color: rgb(249, 123, 176); font-weight: bold;&quot;&gt;FROM &lt;/span&gt;&lt;span style=&quot;border-color: var(--border-color); color: rgb(130, 230, 255);&quot;&gt;affiliate_attribution_order &lt;/span&gt;&lt;span style=&quot;border-color: var(--border-color); color: rgb(249, 123, 176); font-weight: bold;&quot;&gt;AS &lt;/span&gt;&lt;span style=&quot;border-color: var(--border-color); color: rgb(252, 252, 252);&quot;&gt;ao&lt;br style=&quot;border-color: var(--border-color);&quot;&gt;&lt;/span&gt;&lt;span style=&quot;border-color: var(--border-color); color: rgb(252, 252, 252);&quot;&gt;         &lt;/span&gt;&lt;span style=&quot;border-color: var(--border-color); color: rgb(249, 123, 176); font-weight: bold;&quot;&gt;LEFT JOIN &lt;/span&gt;&lt;span style=&quot;border-color: var(--border-color); color: rgb(130, 230, 255);&quot;&gt;order_tbl &lt;/span&gt;&lt;span style=&quot;border-color: var(--border-color); color: rgb(249, 123, 176); font-weight: bold;&quot;&gt;AS &lt;/span&gt;&lt;span style=&quot;border-color: var(--border-color); color: rgb(252, 252, 252);&quot;&gt;ot &lt;/span&gt;&lt;span style=&quot;border-color: var(--border-color); color: rgb(249, 123, 176); font-weight: bold;&quot;&gt;ON &lt;/span&gt;&lt;span style=&quot;border-color: var(--border-color); color: rgb(252, 252, 252);&quot;&gt;ot&lt;/span&gt;.&lt;span style=&quot;border-color: var(--border-color); color: rgb(73, 176, 206);&quot;&gt;order_oid &lt;/span&gt;= &lt;span style=&quot;border-color: var(--border-color); color: rgb(252, 252, 252);&quot;&gt;ao&lt;/span&gt;.&lt;span style=&quot;border-color: var(--border-color); color: rgb(73, 176, 206);&quot;&gt;order_oid &lt;/span&gt;&lt;span style=&quot;border-color: var(--border-color); color: rgb(249, 123, 176); font-weight: bold;&quot;&gt;AND &lt;/span&gt;&lt;span style=&quot;border-color: var(--border-color); color: rgb(252, 252, 252);&quot;&gt;ot&lt;/span&gt;.&lt;span style=&quot;border-color: var(--border-color); color: rgb(73, 176, 206);&quot;&gt;order_status &lt;/span&gt;= &lt;span style=&quot;border-color: var(--border-color); color: rgb(255, 128, 108);&quot;&gt;&#39;BACK&#39;&lt;br style=&quot;border-color: var(--border-color);&quot;&gt;&lt;/span&gt;&lt;span style=&quot;border-color: var(--border-color); color: rgb(255, 128, 108);&quot;&gt;         &lt;/span&gt;&lt;span style=&quot;border-color: var(--border-color); color: rgb(249, 123, 176); font-weight: bold;&quot;&gt;LEFT JOIN &lt;/span&gt;&lt;span style=&quot;border-color: var(--border-color); color: rgb(130, 230, 255);&quot;&gt;order_barcode &lt;/span&gt;&lt;span style=&quot;border-color: var(--border-color); color: rgb(249, 123, 176); font-weight: bold;&quot;&gt;AS &lt;/span&gt;&lt;span style=&quot;border-color: var(--border-color); color: rgb(252, 252, 252);&quot;&gt;ob &lt;/span&gt;&lt;span style=&quot;border-color: var(--border-color); color: rgb(249, 123, 176); font-weight: bold;&quot;&gt;ON &lt;/span&gt;&lt;span style=&quot;border-color: var(--border-color); color: rgb(252, 252, 252);&quot;&gt;ob&lt;/span&gt;.&lt;span style=&quot;border-color: var(--border-color); color: rgb(73, 176, 206);&quot;&gt;order_oid &lt;/span&gt;= &lt;span style=&quot;border-color: var(--border-color); color: rgb(252, 252, 252);&quot;&gt;ao&lt;/span&gt;.&lt;span style=&quot;border-color: var(--border-color); color: rgb(73, 176, 206);&quot;&gt;order_oid &lt;/span&gt;&lt;span style=&quot;border-color: var(--border-color); color: rgb(249, 123, 176); font-weight: bold;&quot;&gt;AND &lt;/span&gt;&lt;span style=&quot;border-color: var(--border-color); color: rgb(252, 252, 252);&quot;&gt;ob&lt;/span&gt;.&lt;span style=&quot;border-color: var(--border-color); color: rgb(73, 176, 206);&quot;&gt;barcode_status &lt;/span&gt;= &lt;span style=&quot;border-color: var(--border-color); color: rgb(255, 128, 108);&quot;&gt;&#39;USED&#39;&lt;br style=&quot;border-color: var(--border-color);&quot;&gt;&lt;/span&gt;&lt;span style=&quot;border-color: var(--border-color); color: rgb(255, 128, 108);&quot;&gt;         &lt;/span&gt;&lt;span style=&quot;border-color: var(--border-color); color: rgb(249, 123, 176); font-weight: bold;&quot;&gt;LEFT JOIN &lt;/span&gt;&lt;span style=&quot;border-color: var(--border-color); color: rgb(130, 230, 255);&quot;&gt;affilliate_web &lt;/span&gt;&lt;span style=&quot;border-color: var(--border-color); color: rgb(249, 123, 176); font-weight: bold;&quot;&gt;AS &lt;/span&gt;&lt;span style=&quot;border-color: var(--border-color); color: rgb(252, 252, 252);&quot;&gt;aw &lt;/span&gt;&lt;span style=&quot;border-color: var(--border-color); color: rgb(249, 123, 176); font-weight: bold;&quot;&gt;ON &lt;/span&gt;&lt;span style=&quot;border-color: var(--border-color); color: rgb(252, 252, 252);&quot;&gt;aw&lt;/span&gt;.&lt;span style=&quot;border-color: var(--border-color); color: rgb(73, 176, 206);&quot;&gt;cid &lt;/span&gt;= &lt;span style=&quot;border-color: var(--border-color); color: rgb(252, 252, 252);&quot;&gt;ao&lt;/span&gt;.&lt;span style=&quot;border-color: var(--border-color); color: rgb(73, 176, 206);&quot;&gt;cid &lt;/span&gt;&lt;span style=&quot;border-color: var(--border-color); color: rgb(249, 123, 176); font-weight: bold;&quot;&gt;AND &lt;/span&gt;&lt;span style=&quot;border-color: var(--border-color); color: rgb(252, 252, 252);&quot;&gt;aw&lt;/span&gt;.&lt;span style=&quot;border-color: var(--border-color); color: rgb(73, 176, 206);&quot;&gt;attribution_type &lt;/span&gt;= &lt;span style=&quot;border-color: var(--border-color); color: rgb(255, 128, 108);&quot;&gt;&#39;DDA&#39;&lt;br style=&quot;border-color: var(--border-color);&quot;&gt;&lt;/span&gt;&lt;span style=&quot;border-color: var(--border-color); color: rgb(249, 123, 176); font-weight: bold;&quot;&gt;WHERE &lt;/span&gt;&lt;span style=&quot;border-color: var(--border-color); color: rgb(252, 252, 252);&quot;&gt;ao&lt;/span&gt;.&lt;span style=&quot;border-color: var(--border-color); color: rgb(73, 176, 206);&quot;&gt;settle_oid &lt;/span&gt;&lt;span style=&quot;border-color: var(--border-color); color: rgb(249, 123, 176); font-weight: bold;&quot;&gt;IS NULL&lt;br style=&quot;border-color: var(--border-color);&quot;&gt;&lt;/span&gt;&lt;span style=&quot;border-color: var(--border-color); color: rgb(249, 123, 176); font-weight: bold;&quot;&gt;  AND &lt;/span&gt;&lt;span style=&quot;border-color: var(--border-color); color: rgb(252, 252, 252);&quot;&gt;ob&lt;/span&gt;.&lt;span style=&quot;border-color: var(--border-color); color: rgb(73, 176, 206);&quot;&gt;use_date &lt;/span&gt;&lt;span style=&quot;border-color: var(--border-color); color: rgb(249, 123, 176); font-weight: bold;&quot;&gt;BETWEEN &lt;/span&gt;&lt;span style=&quot;border-color: var(--border-color); color: rgb(255, 128, 108);&quot;&gt;&#39;2022-12-24&#39; &lt;/span&gt;&lt;span style=&quot;border-color: var(--border-color); color: rgb(249, 123, 176); font-weight: bold;&quot;&gt;AND &lt;/span&gt;&lt;span style=&quot;border-color: var(--border-color); color: rgb(255, 128, 108);&quot;&gt;&#39;2022-12-25&#39;&lt;/span&gt;;&lt;/pre&gt;" style="rounded=1;whiteSpace=wrap;html=1;strokeWidth=2;fillColor=#000000;verticalAlign=bottom;align=left;" parent="WIyWlLk6GJQsqaUBKTNV-1" vertex="1">
          <mxGeometry x="490" y="496.88" width="796" height="265" as="geometry" />
        </mxCell>
        <mxCell id="dn64MigM15AH9dNGIZ7F-15" value="" style="edgeStyle=orthogonalEdgeStyle;rounded=0;orthogonalLoop=1;jettySize=auto;html=1;" parent="WIyWlLk6GJQsqaUBKTNV-1" source="dn64MigM15AH9dNGIZ7F-10" target="dn64MigM15AH9dNGIZ7F-14" edge="1">
          <mxGeometry relative="1" as="geometry" />
        </mxCell>
        <mxCell id="dn64MigM15AH9dNGIZ7F-10" value="CID循環結算" style="rounded=1;whiteSpace=wrap;html=1;strokeWidth=2;fillColor=#fad7ac;strokeColor=#b46504;" parent="WIyWlLk6GJQsqaUBKTNV-1" vertex="1">
          <mxGeometry x="315" y="832.5" width="110" height="30" as="geometry" />
        </mxCell>
        <mxCell id="dn64MigM15AH9dNGIZ7F-44" style="edgeStyle=orthogonalEdgeStyle;rounded=0;orthogonalLoop=1;jettySize=auto;html=1;exitX=1;exitY=0.5;exitDx=0;exitDy=0;entryX=1;entryY=0.5;entryDx=0;entryDy=0;entryPerimeter=0;" parent="WIyWlLk6GJQsqaUBKTNV-1" source="dn64MigM15AH9dNGIZ7F-14" target="dn64MigM15AH9dNGIZ7F-39" edge="1">
          <mxGeometry x="0.0429" y="-80" relative="1" as="geometry">
            <Array as="points">
              <mxPoint x="890" y="1000.5" />
              <mxPoint x="890" y="1842.5" />
            </Array>
            <mxPoint as="offset" />
          </mxGeometry>
        </mxCell>
        <mxCell id="dn64MigM15AH9dNGIZ7F-47" value="N" style="edgeLabel;html=1;align=center;verticalAlign=middle;resizable=0;points=[];fontColor=#FF0000;" parent="dn64MigM15AH9dNGIZ7F-44" vertex="1" connectable="0">
          <mxGeometry x="-0.8726" y="-2" relative="1" as="geometry">
            <mxPoint x="-43" y="-2" as="offset" />
          </mxGeometry>
        </mxCell>
        <mxCell id="dn64MigM15AH9dNGIZ7F-45" style="edgeStyle=orthogonalEdgeStyle;rounded=0;orthogonalLoop=1;jettySize=auto;html=1;exitX=0.5;exitY=1;exitDx=0;exitDy=0;entryX=0.5;entryY=0;entryDx=0;entryDy=0;" parent="WIyWlLk6GJQsqaUBKTNV-1" source="dn64MigM15AH9dNGIZ7F-14" target="dn64MigM15AH9dNGIZ7F-16" edge="1">
          <mxGeometry relative="1" as="geometry" />
        </mxCell>
        <mxCell id="dn64MigM15AH9dNGIZ7F-46" value="Y" style="edgeLabel;html=1;align=center;verticalAlign=middle;resizable=0;points=[];fontColor=#FF0000;" parent="dn64MigM15AH9dNGIZ7F-45" vertex="1" connectable="0">
          <mxGeometry x="-0.4258" y="-4" relative="1" as="geometry">
            <mxPoint x="4" y="8" as="offset" />
          </mxGeometry>
        </mxCell>
        <mxCell id="dn64MigM15AH9dNGIZ7F-14" value="網站設定" style="rhombus;whiteSpace=wrap;html=1;rounded=1;strokeWidth=2;fillColor=#dae8fc;gradientColor=#7ea6e0;strokeColor=#6c8ebf;" parent="WIyWlLk6GJQsqaUBKTNV-1" vertex="1">
          <mxGeometry x="320" y="972.5" width="100" height="55" as="geometry" />
        </mxCell>
        <mxCell id="dn64MigM15AH9dNGIZ7F-19" value="" style="edgeStyle=orthogonalEdgeStyle;rounded=0;orthogonalLoop=1;jettySize=auto;html=1;" parent="WIyWlLk6GJQsqaUBKTNV-1" source="dn64MigM15AH9dNGIZ7F-16" target="dn64MigM15AH9dNGIZ7F-18" edge="1">
          <mxGeometry relative="1" as="geometry" />
        </mxCell>
        <mxCell id="dn64MigM15AH9dNGIZ7F-16" value="priceRefund = affiliate[Attribution]Order.price_refund&lt;br&gt;priceTotal = affiliate[Attribution]Order.price_total[recognized_price] - priceRefund" style="whiteSpace=wrap;html=1;rounded=1;strokeWidth=2;align=left;fillColor=#b1ddf0;strokeColor=#10739e;" parent="WIyWlLk6GJQsqaUBKTNV-1" vertex="1">
          <mxGeometry x="150" y="1122.5" width="440" height="45" as="geometry" />
        </mxCell>
        <mxCell id="dn64MigM15AH9dNGIZ7F-26" value="" style="edgeStyle=orthogonalEdgeStyle;rounded=0;orthogonalLoop=1;jettySize=auto;html=1;" parent="WIyWlLk6GJQsqaUBKTNV-1" source="dn64MigM15AH9dNGIZ7F-18" target="dn64MigM15AH9dNGIZ7F-25" edge="1">
          <mxGeometry relative="1" as="geometry" />
        </mxCell>
        <mxCell id="dn64MigM15AH9dNGIZ7F-27" value="&lt;font color=&quot;#ff0000&quot;&gt;PROD&lt;/font&gt;" style="edgeLabel;html=1;align=center;verticalAlign=middle;resizable=0;points=[];" parent="dn64MigM15AH9dNGIZ7F-26" vertex="1" connectable="0">
          <mxGeometry x="0.4758" y="-3" relative="1" as="geometry">
            <mxPoint x="3" y="-9" as="offset" />
          </mxGeometry>
        </mxCell>
        <mxCell id="dn64MigM15AH9dNGIZ7F-29" value="" style="edgeStyle=orthogonalEdgeStyle;rounded=0;orthogonalLoop=1;jettySize=auto;html=1;" parent="WIyWlLk6GJQsqaUBKTNV-1" source="dn64MigM15AH9dNGIZ7F-18" target="dn64MigM15AH9dNGIZ7F-28" edge="1">
          <mxGeometry relative="1" as="geometry" />
        </mxCell>
        <mxCell id="dn64MigM15AH9dNGIZ7F-36" value="&lt;font color=&quot;#ff0000&quot;&gt;PGSV&lt;/font&gt;" style="edgeLabel;html=1;align=center;verticalAlign=middle;resizable=0;points=[];" parent="dn64MigM15AH9dNGIZ7F-29" vertex="1" connectable="0">
          <mxGeometry x="0.4821" y="-6" relative="1" as="geometry">
            <mxPoint x="6" y="-15" as="offset" />
          </mxGeometry>
        </mxCell>
        <mxCell id="dn64MigM15AH9dNGIZ7F-18" value="affiliate[Attribution]Order.&lt;br&gt;comm_cal_type" style="rhombus;whiteSpace=wrap;html=1;align=center;rounded=1;strokeWidth=2;fillColor=#dae8fc;gradientColor=#7ea6e0;strokeColor=#6c8ebf;" parent="WIyWlLk6GJQsqaUBKTNV-1" vertex="1">
          <mxGeometry x="280" y="1265" width="180" height="77.5" as="geometry" />
        </mxCell>
        <mxCell id="dn64MigM15AH9dNGIZ7F-23" value="attributionType" style="rhombus;whiteSpace=wrap;html=1;rounded=1;strokeWidth=2;fillColor=#dae8fc;gradientColor=#7ea6e0;strokeColor=#6c8ebf;" parent="WIyWlLk6GJQsqaUBKTNV-1" vertex="1">
          <mxGeometry x="320" y="412.5" width="100" height="70" as="geometry" />
        </mxCell>
        <mxCell id="dn64MigM15AH9dNGIZ7F-33" value="" style="edgeStyle=orthogonalEdgeStyle;rounded=0;orthogonalLoop=1;jettySize=auto;html=1;entryX=0;entryY=0.5;entryDx=0;entryDy=0;" parent="WIyWlLk6GJQsqaUBKTNV-1" source="dn64MigM15AH9dNGIZ7F-25" target="dn64MigM15AH9dNGIZ7F-32" edge="1">
          <mxGeometry relative="1" as="geometry" />
        </mxCell>
        <mxCell id="dn64MigM15AH9dNGIZ7F-25" value="sumProdPriceTotal += priceTotal&lt;br&gt;prodSettlePrice = priceTotal * affiliate[Attribution]Order.comm_cal_rate&lt;br&gt;sumProdSettlePrice += prodSettlePrice&lt;br&gt;sumCommission = affiliateOrder.kkday_commission // 具體跟一下" style="whiteSpace=wrap;html=1;rounded=1;strokeWidth=2;align=left;fillColor=#b1ddf0;strokeColor=#10739e;" parent="WIyWlLk6GJQsqaUBKTNV-1" vertex="1">
          <mxGeometry x="-140" y="1396.5" width="380" height="70" as="geometry" />
        </mxCell>
        <mxCell id="dn64MigM15AH9dNGIZ7F-35" style="edgeStyle=orthogonalEdgeStyle;rounded=0;orthogonalLoop=1;jettySize=auto;html=1;entryX=1;entryY=0.5;entryDx=0;entryDy=0;" parent="WIyWlLk6GJQsqaUBKTNV-1" source="dn64MigM15AH9dNGIZ7F-28" target="dn64MigM15AH9dNGIZ7F-32" edge="1">
          <mxGeometry relative="1" as="geometry" />
        </mxCell>
        <mxCell id="dn64MigM15AH9dNGIZ7F-28" value="sumPgsvPriceTotal += priceTotal&lt;br&gt;sumPgsvSettlePrice = sumPgsvPriceTotal * affiliateComm.comm_rate&lt;br&gt;sumCommission = 0" style="whiteSpace=wrap;html=1;rounded=1;strokeWidth=2;align=left;fillColor=#b1ddf0;strokeColor=#10739e;" parent="WIyWlLk6GJQsqaUBKTNV-1" vertex="1">
          <mxGeometry x="490" y="1401.5" width="380" height="60" as="geometry" />
        </mxCell>
        <mxCell id="dn64MigM15AH9dNGIZ7F-40" style="edgeStyle=orthogonalEdgeStyle;rounded=0;orthogonalLoop=1;jettySize=auto;html=1;exitX=0.5;exitY=1;exitDx=0;exitDy=0;" parent="WIyWlLk6GJQsqaUBKTNV-1" source="dn64MigM15AH9dNGIZ7F-32" target="dn64MigM15AH9dNGIZ7F-39" edge="1">
          <mxGeometry relative="1" as="geometry" />
        </mxCell>
        <mxCell id="dn64MigM15AH9dNGIZ7F-32" value="affiliateSettle.settle_dt = currentTime&lt;br&gt;affiliateSettle.price_total = sumProdPriceTotal + sumPgsvPriceTotal&lt;br&gt;affiliateSettle.kkday_total_commission = sumCommission&lt;br&gt;affiliateSettle.order_num = list.size()&lt;br&gt;affiliateSettle.settle_comm_rate = affiliateComm.comm_rate&lt;br&gt;affiliateSettle.settle_price = sumProdSettlePrice + sumPgsvSettlePrice&lt;br&gt;affiliateSettle.cid = cid&lt;br&gt;affiliateSettle.settle_status = 0&lt;br&gt;affiliateSettle.affiliate_comm_snap = affiliateCommList&lt;br&gt;affiliateSettle.attribution_type = &#39;LAST&#39;[&#39;DDA&#39;]&lt;br&gt;&lt;br&gt;affiliate[Attribution]Order.settle_oid = affiliateSettle.settle_oid&lt;br&gt;affiliate[Attribution]Order.comm_cal_type === &#39;PGSV&#39; &amp;amp;&amp;amp;&amp;nbsp;&lt;br&gt;affiliate[Attribution]Order.comm_cal_rate = affiliateComm.comm_rate" style="whiteSpace=wrap;html=1;align=left;rounded=1;strokeWidth=2;fillColor=#b1ddf0;strokeColor=#10739e;" parent="WIyWlLk6GJQsqaUBKTNV-1" vertex="1">
          <mxGeometry x="172.5" y="1485" width="395" height="237.5" as="geometry" />
        </mxCell>
        <mxCell id="dn64MigM15AH9dNGIZ7F-37" value="&lt;div style=&quot;caret-color: rgb(0, 0, 0); text-align: start; text-size-adjust: auto;&quot; class=&quot;mind-clipboard&quot;&gt;每月 5 號的 9 點執行 LAST 訂單「前 3 個月」&lt;div&gt;&amp;nbsp; &amp;nbsp; &amp;nbsp; &amp;nbsp; &amp;nbsp; &amp;nbsp; &amp;nbsp; &amp;nbsp; &amp;nbsp;10 點執行&amp;nbsp; DDA &amp;nbsp;訂單「前 1 個月」&lt;/div&gt;&lt;/div&gt;" style="ellipse;shape=cloud;whiteSpace=wrap;html=1;strokeWidth=2;fillColor=#f5f5f5;gradientColor=#b3b3b3;strokeColor=#666666;" parent="WIyWlLk6GJQsqaUBKTNV-1" vertex="1">
          <mxGeometry x="600" y="290" width="300" height="85" as="geometry" />
        </mxCell>
        <mxCell id="dn64MigM15AH9dNGIZ7F-39" value="END" style="strokeWidth=2;html=1;shape=mxgraph.flowchart.terminator;whiteSpace=wrap;fillColor=#d5e8d4;strokeColor=#82b366;gradientColor=#97d077;" parent="WIyWlLk6GJQsqaUBKTNV-1" vertex="1">
          <mxGeometry x="320" y="1812.5" width="100" height="60" as="geometry" />
        </mxCell>
        <mxCell id="dn64MigM15AH9dNGIZ7F-48" value="這裡需要排除order_barcode&lt;br&gt;中未核銷的訂單" style="ellipse;shape=cloud;whiteSpace=wrap;html=1;rounded=1;strokeWidth=2;" parent="WIyWlLk6GJQsqaUBKTNV-1" vertex="1">
          <mxGeometry x="310" y="590" width="120" height="80" as="geometry" />
        </mxCell>
      </root>
    </mxGraphModel>
  </diagram>
</mxfile>
